<svg xmlns="http://www.w3.org/2000/svg" width="86.282" height="86.282" viewBox="0 0 86.282 86.282">
  <g id="stroke" transform="translate(179.525 -322.475)">
    <g id="XMLID_1_" transform="translate(-176.525 325.475)">
      <path id="XMLID_8_" d="M-98.222,370.249l-33.528,33.528a6.412,6.412,0,0,1-9.267,0l-33.528-33.528a6.412,6.412,0,0,1,0-9.267l33.528-33.528a6.412,6.412,0,0,1,9.267,0l33.528,33.528A6.411,6.411,0,0,1-98.222,370.249Z" transform="translate(176.525 -325.475)" fill="none" stroke="#6a5fd5" stroke-linecap="round" stroke-linejoin="round" stroke-width="6"/>
      <circle id="XMLID_7_" cx="6.346" cy="6.346" r="6.346" transform="translate(33.711 15.458)" fill="none" stroke="#6a5fd5" stroke-linecap="round" stroke-linejoin="round" stroke-width="6"/>
      <circle id="XMLID_6_" cx="6.627" cy="6.627" r="6.627" transform="translate(51.626 33.43)" fill="none" stroke="#6a5fd5" stroke-linecap="round" stroke-linejoin="round" stroke-width="6"/>
      <circle id="XMLID_5_" cx="6.346" cy="6.346" r="6.346" transform="translate(33.711 51.907)" fill="none" stroke="#6a5fd5" stroke-linecap="round" stroke-linejoin="round" stroke-width="6"/>
      <path id="XMLID_4_" d="M-126.5,343.1l7.469,7.413" transform="translate(154.595 -333.202)" fill="none" stroke="#6a5fd5" stroke-linecap="round" stroke-linejoin="round" stroke-width="6"/>
      <path id="XMLID_3_" d="M-105.2,376.1v23.475" transform="translate(145.257 -347.668)" fill="none" stroke="#6a5fd5" stroke-linecap="round" stroke-linejoin="round" stroke-width="6"/>
      <path id="XMLID_2_" d="M-87.99,381.5l-9.21-8.7" transform="translate(141.75 -346.222)" fill="none" stroke="#6a5fd5" stroke-linecap="round" stroke-linejoin="round" stroke-width="6"/>
    </g>
  </g>
</svg>
