<svg xmlns="http://www.w3.org/2000/svg" width="86" height="86" viewBox="0 0 86 86">
  <g id="stroke" transform="translate(169.4 -332.6)">
    <g id="XMLID_10_" transform="translate(-166.4 335.6)">
      <path id="XMLID_9_" d="M-166.4,335.6h80v80h-80Z" transform="translate(166.4 -335.6)" fill="none" stroke="#6a5fd5" stroke-linecap="round" stroke-linejoin="round" stroke-width="6"/>
      <path id="XMLID_2_" d="M-123.093,383.9v27.967s-.508,8.454-8.454,8.454S-140,411.867-140,411.867" transform="translate(157.296 -351.253)" fill="none" stroke="#6a5fd5" stroke-linecap="round" stroke-linejoin="round" stroke-width="6"/>
      <path id="XMLID_3_" d="M-96.273,413.261c0,7.5,8.454,8.454,8.454,8.454h5.466a8.31,8.31,0,0,0,8.454-8.454c0-5.975-4.513-8.454-11.25-8.454-6.483,0-11.25-2.225-11.25-8.454,0,0,.508-8.454,8.454-8.454h7.754" transform="translate(142.776 -352.71)" fill="none" stroke="#6a5fd5" stroke-linecap="round" stroke-linejoin="round" stroke-width="6"/>
    </g>
  </g>
</svg>
