<svg xmlns="http://www.w3.org/2000/svg" width="88.338" height="81.016" viewBox="0 0 88.338 81.016">
  <g id="react" transform="translate(-30.15 -57.983)">
    <path id="Path_724" data-name="Path 724" d="M101.758,84.609c-.9-.321-1.829-.622-2.733-.9.154-.662.289-1.3.423-1.966,2.079-10.513.712-18.959-3.907-21.748-4.446-2.668-11.7.1-19.056,6.781-.731.662-1.444,1.344-2.117,2.026-.462-.461-.924-.923-1.405-1.364-7.7-7.122-15.418-10.112-20.038-7.323C48.5,62.8,47.169,70.745,49.036,80.7c.192.983.385,1.966.635,2.949-1.078.321-2.156.662-3.138,1.043C37.487,87.959,31,93.115,31,98.432c0,5.5,6.91,11.014,16.284,14.365.77.261,1.521.522,2.31.762-.25,1.063-.481,2.107-.674,3.17-1.771,9.791-.385,17.555,4.042,20.2,4.562,2.749,12.242-.08,19.73-6.9.6-.542,1.193-1.1,1.771-1.705.751.762,1.521,1.485,2.31,2.187,7.237,6.48,14.4,9.108,18.806,6.46,4.562-2.749,6.063-11.095,4.119-21.246-.154-.782-.327-1.565-.5-2.387.539-.16,1.059-.341,1.6-.5,9.759-3.37,16.843-8.807,16.843-14.4-.019-5.337-6.679-10.513-15.88-13.823ZM78.852,69.642c6.294-5.718,12.165-7.945,14.841-6.34,2.868,1.705,3.965,8.627,2.156,17.7-.115.6-.231,1.184-.385,1.765a81.349,81.349,0,0,0-11.4-1.866,90.261,90.261,0,0,0-7.2-9.369C77.543,70.886,78.178,70.264,78.852,69.642ZM59.3,107.58c.866,1.525,1.752,3.07,2.676,4.574a74.667,74.667,0,0,1-7.853-1.324c.751-2.548,1.675-5.176,2.753-7.844.77,1.545,1.578,3.09,2.425,4.594ZM54.156,86.374c2.445-.562,5.024-1.023,7.719-1.384-.9,1.465-1.771,2.969-2.6,4.474s-1.636,3.029-2.406,4.594c-1.078-2.628-1.963-5.2-2.714-7.684Zm4.639,12.158c1.116-2.428,2.329-4.815,3.619-7.162s2.676-4.614,4.119-6.861c2.541-.2,5.12-.3,7.757-.3s5.236.1,7.757.3c1.444,2.227,2.81,4.494,4.119,6.821s2.522,4.715,3.676,7.122c-1.136,2.428-2.348,4.835-3.657,7.2-1.29,2.347-2.656,4.614-4.1,6.881-2.522.2-5.139.281-7.8.281s-5.236-.08-7.719-.241c-1.463-2.247-2.868-4.534-4.158-6.881s-2.483-4.735-3.619-7.162Zm30.548,9.028c.866-1.545,1.675-3.13,2.464-4.715,1.078,2.548,2.021,5.156,2.868,7.8a70.958,70.958,0,0,1-7.95,1.4c.924-1.465,1.771-2.989,2.618-4.494Zm2.445-13.5c-.789-1.545-1.6-3.11-2.445-4.614-.828-1.5-1.694-2.989-2.579-4.434a76.163,76.163,0,0,1,7.757,1.4C93.731,89.022,92.827,91.55,91.787,94.058ZM74.348,74.236a77.947,77.947,0,0,1,5,6.32c-3.349-.16-6.718-.16-10.067,0C70.941,78.269,72.654,76.142,74.348,74.236ZM54.714,63.423c2.849-1.725,9.143.742,15.8,6.881.423.381.847.8,1.29,1.244a88.689,88.689,0,0,0-7.257,9.369,87.3,87.3,0,0,0-11.376,1.826c-.212-.9-.4-1.826-.6-2.729C51,71.468,52.039,65.028,54.714,63.423Zm-4.138,46.485c-.712-.221-1.405-.441-2.1-.682a34.184,34.184,0,0,1-10.664-5.5,7.886,7.886,0,0,1-3.176-5.276c0-3.23,5.351-7.363,13.07-10.152.962-.361,1.944-.662,2.926-.963a98.344,98.344,0,0,0,4.138,11.215A94.624,94.624,0,0,0,50.576,109.907Zm19.73,17.274a30.644,30.644,0,0,1-9.547,6.219,7.135,7.135,0,0,1-5.967.221C52.1,132,50.98,125.777,52.5,117.391c.192-.983.385-1.966.635-2.949a82.369,82.369,0,0,0,11.491,1.725,89.687,89.687,0,0,0,7.314,9.409c-.558.582-1.1,1.1-1.636,1.605Zm4.138-4.293c-1.732-1.946-3.445-4.093-5.12-6.4,1.617.08,3.292.1,4.985.1,1.752,0,3.446-.04,5.139-.12A76.128,76.128,0,0,1,74.444,122.888Zm22.117,5.3A7.994,7.994,0,0,1,93.77,133.7c-2.695,1.625-8.431-.5-14.61-6.039-.712-.642-1.424-1.324-2.156-2.026a90.718,90.718,0,0,0,7.141-9.449,80.283,80.283,0,0,0,11.53-1.846c.173.722.327,1.445.462,2.147a33.6,33.6,0,0,1,.423,11.7Zm3.08-18.959c-.481.16-.943.321-1.444.461a93.015,93.015,0,0,0-4.312-11.255,89.811,89.811,0,0,0,4.138-11.095c.885.261,1.732.542,2.541.823,7.892,2.829,13.416,7.022,13.416,10.232C113.981,101.862,108.071,106.316,99.641,109.225Zm-25.331-2.648a8.092,8.092,0,1,0-7.757-8.085,7.928,7.928,0,0,0,7.757,8.085Z" transform="translate(0)" fill="#6a5fd5" stroke="#6a5fd5" stroke-width="1.7"/>
  </g>
</svg>
