<svg xmlns="http://www.w3.org/2000/svg" width="18" height="18" viewBox="0 0 18 18">
  <path id="Path_686" data-name="Path 686" d="M11.048,2A9.069,9.069,0,0,0,2.166,9.751,9.251,9.251,0,0,0,8.2,19.985c.451.083.612-.2.612-.445,0-.219-.007-.8-.01-1.573-2.5.555-3.032-1.238-3.032-1.238a2.432,2.432,0,0,0-1-1.35c-.812-.573.062-.56.062-.56a1.884,1.884,0,0,1,1.377.951,1.925,1.925,0,0,0,1.152.942,1.873,1.873,0,0,0,1.464-.175A2,2,0,0,1,9.4,15.3c-2-.232-4.1-1.024-4.1-4.561a3.628,3.628,0,0,1,.925-2.471,3.4,3.4,0,0,1,.09-2.442s.755-.249,2.473.945a8.309,8.309,0,0,1,4.5,0c1.719-1.194,2.473-.945,2.473-.945a3.382,3.382,0,0,1,.09,2.442,3.6,3.6,0,0,1,.924,2.475c0,3.546-2.1,4.325-4.106,4.554a2.244,2.244,0,0,1,.609,1.708c0,1.234-.011,2.23-.011,2.532,0,.247.161.534.62.443A9.252,9.252,0,0,0,19.931,9.748,9.069,9.069,0,0,0,11.048,2Z" transform="translate(-2.049 -2)" fill="#fafafa"/>
</svg>
