<svg xmlns="http://www.w3.org/2000/svg" width="18" height="18" viewBox="0 0 18 18">
  <path id="Path_621" data-name="Path 621" d="M115,351a.923.923,0,0,1,.3-.7.96.96,0,0,1,.7-.3,1.018,1.018,0,0,1,1,1v2a4.028,4.028,0,0,1-.526,2.018A3.953,3.953,0,0,1,113,357H103a4.028,4.028,0,0,1-2.018-.526,4.14,4.14,0,0,1-1.456-1.456A4.029,4.029,0,0,1,99,353V343a3.955,3.955,0,0,1,1.982-3.474A4.028,4.028,0,0,1,103,339h2a1.018,1.018,0,0,1,1,1,.96.96,0,0,1-.3.7.923.923,0,0,1-.7.3h-2a1.827,1.827,0,0,0-2,2v10a1.827,1.827,0,0,0,2,2h10a1.827,1.827,0,0,0,2-2Zm-8.3-.3a.891.891,0,0,1-.7.3,1.018,1.018,0,0,1-1-1,.891.891,0,0,1,.3-.7l10-10a.993.993,0,1,1,1.4,1.4ZM117,346a.96.96,0,0,1-.3.7.923.923,0,0,1-.7.3,1.018,1.018,0,0,1-1-1v-5.86q0-.087.246.141a3.023,3.023,0,0,1,.473.473q.228.246.141.246H110a1.018,1.018,0,0,1-1-1,.923.923,0,0,1,.3-.7.96.96,0,0,1,.7-.3h5.86a1.137,1.137,0,0,1,1.14,1.14Z" transform="translate(-99 -339)" fill="#fafafa"/>
</svg>
