<svg id="visual" viewBox="0 0 900 600" width="900" height="600" xmlns="http://www.w3.org/2000/svg" xmlns:xlink="http://www.w3.org/1999/xlink" version="1.1"><rect x="0" y="0" width="900" height="600" fill="#151418"></rect><path d="M0 448L30 451.7C60 455.3 120 462.7 180 454.3C240 446 300 422 360 397.5C420 373 480 348 540 335.3C600 322.7 660 322.3 720 349.8C780 377.3 840 432.7 870 460.3L900 488L900 601L870 601C840 601 780 601 720 601C660 601 600 601 540 601C480 601 420 601 360 601C300 601 240 601 180 601C120 601 60 601 30 601L0 601Z" fill="#fff" stroke-linecap="round" stroke-linejoin="miter"></path></svg>